#!OML:ASF F:\VICON\USERDATA\INSTALL\rory3\rory3.ASF
:FULLY-SPECIFIED
:DEGREES
469
root -0.15844 18.0889 0.251412 177.895 -0.449347 179.791
lowerback 8.07175 0.955783 -1.01635
upperback 0.369475 1.15088 0.341154
thorax -4.17151 0.574217 0.793255
lowerneck -21.117 -4.91054 -12.661
upperneck 29.542 -7.10513 9.30552
head 14.5193 -3.73345 4.52007
rclavicle 1.56543e-015 1.98785e-015
rhumerus -33.3468 -9.43003 -83.4106
rradius 30.1202
rwrist 7.84885
rhand -14.428 7.91631
rfingers 7.12502
rthumb 11.7164 -21.736
lclavicle 1.56543e-015 1.98785e-015
lhumerus -37.8141 6.46439 84.5592
lradius 34.8481
lwrist -3.57791
lhand -18.6847 23.9951
lfingers 7.12502
lthumb 7.60946 53.8382
rfemur -2.29889 -0.831225 21.7975
rtibia 22.8388
rfoot -14.8222 -1.06302
rtoes 3.6718
lfemur 1.81832 -2.60237 -23.2113
ltibia 14.3218
lfoot -8.81533 1.91861
ltoes 2.70919
470
root -0.154307 18.0906 0.251813 177.947 -0.449764 179.79
lowerback 8.00177 0.927736 -1.03859
upperback 0.35724 1.11288 0.331102
thorax -4.14435 0.556168 0.800639
lowerneck -21.2542 -4.93531 -12.6104
upperneck 29.5788 -7.10605 9.21657
head 14.5598 -3.73395 4.47412
rclavicle 6.84254e-015 3.8266e-015
rhumerus -33.3259 -9.69074 -83.2606
rradius 29.789
rwrist 7.9441
rhand -14.2748 7.69644
rfingers 7.12502
rthumb 11.8641 -21.9474
lclavicle 6.84254e-015 3.8266e-015
lhumerus -37.8102 6.35345 84.6534
lradius 34.8503
lwrist -3.65514
lhand -18.5691 23.8666
lfingers 7.12502
lthumb 7.72102 53.7057
rfemur -2.33036 -0.826065 21.8165
rtibia 22.8035
rfoot -14.7945 -1.08633
rtoes 3.72692
lfemur 1.79749 -2.67818 -23.2027
ltibia 14.2646
lfoot -8.78449 1.98818
ltoes 2.55524
471
root -0.148413 18.0926 0.251707 177.96 -0.365741 179.845
lowerback 7.99287 0.920472 -1.0291
upperback 0.319099 1.10573 0.333428
thorax -4.17869 0.553455 0.798296
lowerneck -21.2917 -4.94567 -12.5521
upperneck 29.5688 -7.12033 9.17816
head 14.5612 -3.73613 4.44437
rclavicle 3.59676e-015 -5.96354e-016
rhumerus -33.3948 -9.9745 -83.1096
rradius 29.4803
rwrist 8.09618
rhand -14.2595 7.62069
rfingers 7.12502
rthumb 11.8789 -22.0223
lclavicle 3.59676e-015 -5.96354e-016
lhumerus -37.9141 6.21625 84.6981
lradius 34.8819
lwrist -3.64433
lhand -18.5979 23.9665
lfingers 7.12502
lthumb 7.69328 53.8066
rfemur -2.32844 -0.682021 21.9161
rtibia 22.7537
rfoot -14.7219 -1.15168
rtoes 3.86615
lfemur 1.80379 -2.71513 -23.1283
ltibia 14.2475
lfoot -8.79993 2.08121
ltoes 2.70555
472
root -0.140959 18.0951 0.252609 177.957 -0.261214 179.953
lowerback 8.00888 0.925264 -1.00375
upperback 0.306849 1.11596 0.367627
thorax -4.20084 0.558587 0.817957
lowerneck -21.3808 -4.97534 -12.5287
upperneck 29.5309 -7.15038 9.19139
head 14.5682 -3.73757 4.4387
rclavicle -1.12966e-014 2.93207e-015
rhumerus -33.4193 -10.2289 -82.9624
rradius 29.2025
rwrist 8.19054
rhand -14.2701 7.50379
rfingers 7.12502
rthumb 11.8687 -22.1398
lclavicle -1.12966e-014 2.93207e-015
lhumerus -37.9466 6.1868 84.7243
lradius 34.8192
lwrist -3.71334
lhand -18.7189 24.0976
lfingers 7.12502
lthumb 7.57651 53.9419
rfemur -2.312 -0.510787 22.0847
rtibia 22.6688
rfoot -14.5738 -1.22156
rtoes 4.07772
lfemur 1.78759 -2.64359 -22.9725
ltibia 14.2814
lfoot -8.86186 2.08748
ltoes 2.78182
473
root -0.132041 18.0981 0.256991 178.002 -0.16226 180.016
lowerback 7.99923 0.920956 -1.05245
upperback 0.314509 1.1071 0.403069
thorax -4.18894 0.555251 0.883294
lowerneck -21.5685 -5.02281 -12.5619
upperneck 29.5268 -7.18191 9.23384
head 14.6163 -3.73908 4.45569
rclavicle 7.24943e-015 1.19271e-015
rhumerus -33.3178 -10.5693 -82.7988
rradius 28.8243
rwrist 8.28061
rhand -14.4089 7.57983
rfingers 7.12502
rthumb 11.7348 -22.0715
lclavicle 7.24943e-015 1.19271e-015
lhumerus -37.8919 6.28506 84.7108
lradius 34.7451
lwrist -3.84277
lhand -18.5953 24.2933
lfingers 7.12502
lthumb 7.69577 54.1333
rfemur -2.34121 -0.334746 22.218
rtibia 22.5595
rfoot -14.536 -1.32156
rtoes 4.13651
lfemur 1.66544 -2.57078 -22.8523
ltibia 14.3804
lfoot -8.85734 2.0848
ltoes 2.9454
474
root -0.123471 18.1009 0.262661 178.072 -0.111229 180.103
lowerback 7.97258 0.895982 -1.0293
upperback 0.293258 1.07741 0.40853
thorax -4.19501 0.540707 0.879545
lowerneck -21.5766 -5.01886 -12.575
upperneck 29.4408 -7.18456 9.32822
head 14.5854 -3.72431 4.49517
rclavicle -7.62681e-015 1.2424e-015
rhumerus -33.3053 -10.9907 -82.6588
rradius 28.4579
rwrist 8.45508
rhand -14.6828 8.01532
rfingers 7.12502
rthumb 11.4707 -21.6509
lclavicle -7.62681e-015 1.2424e-015
lhumerus -37.8601 6.32253 84.6629
lradius 34.7164
lwrist -3.78251
lhand -18.4963 24.803
lfingers 7.12502
lthumb 7.79137 54.6394
rfemur -2.40883 -0.174717 22.3736
rtibia 22.4667
rfoot -14.5175 -1.43816
rtoes 4.21861
lfemur 1.51085 -2.5623 -22.719
ltibia 14.4776
lfoot -8.84545 2.12477
ltoes 3.02735
475
root -0.117578 18.1022 0.266854 178.155 -0.0614797 180.206
lowerback 7.91806 0.884682 -0.955313
upperback 0.262759 1.07146 0.417079
thorax -4.19473 0.537203 0.847961
lowerneck -21.5442 -5.01158 -12.5234
upperneck 29.3783 -7.17305 9.29462
head 14.5448 -3.71532 4.47268
rclavicle -2.15557e-015 5.96354e-016
rhumerus -33.3783 -11.2157 -82.5677
rradius 28.2852
rwrist 8.52176
rhand -14.8065 8.0772
rfingers 7.12502
rthumb 11.3514 -21.5956
lclavicle -2.15557e-015 5.96354e-016
lhumerus -37.8427 6.34028 84.6341
lradius 34.665
lwrist -3.71267
lhand -18.4058 25.0277
lfingers 7.12502
lthumb 7.87868 54.8609
rfemur -2.49517 -0.0893181 22.5293
rtibia 22.4106
rfoot -14.4388 -1.49098
rtoes 3.90872
lfemur 1.37704 -2.53088 -22.5773
ltibia 14.535
lfoot -8.90405 2.14447
ltoes 2.91724
476
root -0.112762 18.1019 0.267369 178.174 0.00694166 180.232
lowerback 7.91501 0.839338 -0.959089
upperback 0.236603 1.08552 0.40044
thorax -4.21976 0.576688 0.828695
lowerneck -21.4676 -4.9872 -12.4528
upperneck 29.313 -7.15429 9.26436
head 14.4914 -3.70325 4.44974
rclavicle 5.66847e-016 -2.23633e-015
rhumerus -33.4946 -11.3843 -82.5117
rradius 28.1893
rwrist 8.5137
rhand -14.7069 7.90522
rfingers 7.12502
rthumb 11.4474 -21.7623
lclavicle 5.66847e-016 -2.23633e-015
lhumerus -37.842 6.415 84.5589
lradius 34.495
lwrist -3.75731
lhand -18.3164 24.5654
lfingers 7.12502
lthumb 7.96494 54.3953
rfemur -2.50158 -0.0377256 22.5811
rtibia 22.3907
rfoot -14.4439 -1.46285
rtoes 4.05272
lfemur 1.35572 -2.52657 -22.5394
ltibia 14.5469
lfoot -8.93286 2.2412
ltoes 2.94079
477
root -0.110175 18.1019 0.268234 178.197 0.0262682 180.207
lowerback 7.923 0.833096 -0.97929
upperback 0.205902 1.07252 0.365718
thorax -4.25557 0.570073 0.805231
lowerneck -21.3839 -4.96863 -12.4433
upperneck 29.2426 -7.14864 9.3081
head 14.4426 -3.69469 4.46596
rclavicle -6.89301e-015 -4.96962e-017
rhumerus -33.5647 -11.5977 -82.4443
rradius 28.062
rwrist 8.53715
rhand -14.5238 7.82032
rfingers 7.12502
rthumb 11.624 -21.8373
lclavicle -6.89301e-015 -4.96962e-017
lhumerus -37.7707 6.57067 84.4517
lradius 34.1736
lwrist -3.94108
lhand -18.3984 23.9285
lfingers 7.12502
lthumb 7.8858 53.7614
rfemur -2.54161 -0.0909199 22.5512
rtibia 22.422
rfoot -14.5007 -1.35141
rtoes 4.42407
lfemur 1.36325 -2.58459 -22.5724
ltibia 14.4952
lfoot -8.98101 2.3361
ltoes 3.22914
478
root -0.10776 18.1022 0.271514 178.239 -0.0178844 180.083
lowerback 7.90181 0.852167 -1.06663
upperback 0.218238 1.01471 0.290933
thorax -4.23024 0.511333 0.78616
lowerneck -21.5072 -4.96961 -12.3442
upperneck 29.2837 -7.13487 9.21205
head 14.4766 -3.68537 4.41183
rclavicle -1.16895e-014 1.2921e-015
rhumerus -33.52 -11.8469 -82.4178
rradius 27.8964
rwrist 8.5984
rhand -14.3876 7.58953
rfingers 7.12502
rthumb 11.7554 -22.0606
lclavicle -1.16895e-014 1.2921e-015
lhumerus -37.6436 6.63072 84.3692
lradius 33.9693
lwrist -3.97919
lhand -18.4625 23.7682
lfingers 7.12502
lthumb 7.824 53.6034
rfemur -2.64421 -0.207749 22.4068
rtibia 22.528
rfoot -14.5284 -1.2866
rtoes 4.61538
lfemur 1.38646 -2.68222 -22.7102
ltibia 14.3344
lfoot -8.85133 2.37886
ltoes 3.23207
